# xmcd
#
# Track frame offsets:
#	150
#	17512
#	35436
#	51444
#	68549
#	83438
#	95959
#	112973
#	126465
#	145874
#	166200
#	184794
#	201507
#	215316
#
# Disc length: 3035 seconds
#
# Revision: 0
# Processed by: cddbd v1.5.2PL0 Copyright (c) Steve Scherf et al.
# Submitted via: EasyCDDAExtractor 12.0.0.1
#
DISCID=c30bd90e
DTITLE=ไพบูลย์ บุตรขัน - เปิดกรุเพลงดัง
DYEAR=1900
DGENRE=Other
TTITLE0=มนต์รักลูกทุ่ง
TTITLE1=มนต์รักแม่กลอง
TTITLE2=ขี้เหร่ก็รัก
TTITLE3=ดอกรักบานแล้ว
TTITLE4=น้ำท่วม
TTITLE5=กล่อมนางนอน
TTITLE6=ฝนตกฟ้าร้อง
TTITLE7=ลานรักลั่นทม
TTITLE8=อยากรู้ใจเธอ
TTITLE9=รักแล้งเดือนห้า
TTITLE10=ฝนเดือนหก
TTITLE11=น้ำลงนกร้อง
TTITLE12=นกร้องน้องช้ำ
TTITLE13=คนเหมือนกัน
EXTD=
EXTT0=
EXTT1=
EXTT2=
EXTT3=
EXTT4=
EXTT5=
EXTT6=
EXTT7=
EXTT8=
EXTT9=
EXTT10=
EXTT11=
EXTT12=
EXTT13=
PLAYORDER=
